<svg width="16" height="17" viewBox="0 0 16 17" fill="none" xmlns="http://www.w3.org/2000/svg">
<g clip-path="url(#clip0)">
<path d="M8 0.00146484C3.58862 0.00146484 0 3.59009 0 8.00146C0 12.4128 3.58862 16.0015 8 16.0015C12.4114 16.0015 16 12.4128 16 8.00146C16 3.59009 12.4114 0.00146484 8 0.00146484ZM11.8047 12.1394C11.6747 12.2694 11.504 12.3348 11.3334 12.3348C11.1627 12.3348 10.9919 12.2694 10.8621 12.1394L7.52869 8.80615C7.40332 8.68152 7.33337 8.51208 7.33337 8.33484V4.00146C7.33337 3.63281 7.63196 3.33484 8 3.33484C8.36804 3.33484 8.66663 3.63281 8.66663 4.00146V8.05884L11.8047 11.1968C12.0653 11.4575 12.0653 11.8788 11.8047 12.1394Z" fill="#30427E"/>
</g>
<defs>
<clipPath id="clip0">
<rect width="16" height="16" fill="white" transform="translate(0 0.00146484)"/>
</clipPath>
</defs>
</svg>
