<svg width="15" height="16" viewBox="0 0 15 16" fill="none" xmlns="http://www.w3.org/2000/svg">
<path d="M9.94301 7.57821L14.9999 10.7751V4.24634L9.94301 7.57821Z" fill="#30427E"/>
<path d="M0 4.24634V10.7751L5.05688 7.57821L0 4.24634Z" fill="#30427E"/>
<path d="M14.0626 2.34521H0.937558C0.469745 2.34521 0.0984955 2.69396 0.028183 3.14303L7.50006 8.06584L14.9719 3.14303C14.9016 2.69396 14.5304 2.34521 14.0626 2.34521Z" fill="#30427E"/>
<path d="M9.08437 8.14449L7.75781 9.01824C7.67906 9.0698 7.59 9.09512 7.5 9.09512C7.41 9.09512 7.32094 9.0698 7.24219 9.01824L5.91562 8.14355L0.0299988 11.8664C0.102186 12.3117 0.471561 12.6576 0.937499 12.6576H14.0625C14.5284 12.6576 14.8978 12.3117 14.97 11.8664L9.08437 8.14449Z" fill="#30427E"/>
</svg>
