<svg width="14" height="17" viewBox="0 0 14 17" fill="none" xmlns="http://www.w3.org/2000/svg">
<path d="M6.99995 0.00146484C3.67195 0.00146484 0.964584 2.70883 0.964584 6.03641C0.964584 10.8276 6.35237 15.6406 6.58185 15.8436C6.70185 15.9488 6.8509 16.0015 6.99995 16.0015C7.1549 16.0015 7.30985 15.9446 7.43069 15.8314C7.65932 15.6175 13.0353 10.5396 13.0353 6.03683C13.0353 2.70925 10.3271 0.00146484 6.99995 0.00146484ZM6.99995 8.91431C5.41048 8.91431 4.12248 7.62546 4.12248 6.03725C4.12248 4.44904 5.41048 3.1602 6.99995 3.1602C8.58858 3.1602 9.87659 4.44862 9.87659 6.03725C9.87659 7.62589 8.58858 8.91431 6.99995 8.91431Z" fill="#30427E"/>
</svg>
