<svg width="33" height="44" viewBox="0 0 33 44" fill="none" xmlns="http://www.w3.org/2000/svg">
<path d="M16.5 0.0012207C7.55601 0.0012207 0.279953 7.27727 0.279953 16.2201C0.279953 29.0964 14.7596 42.0315 15.3763 42.5769C15.6988 42.8598 16.0994 43.0012 16.5 43.0012C16.9164 43.0012 17.3328 42.8485 17.6576 42.5441C18.2721 41.9692 32.7201 28.3224 32.7201 16.2213C32.7201 7.2784 25.4417 0.0012207 16.5 0.0012207ZM16.5 23.9545C12.2283 23.9545 8.7668 20.4907 8.7668 16.2224C8.7668 11.9541 12.2283 8.49033 16.5 8.49033C20.7695 8.49033 24.231 11.953 24.231 16.2224C24.231 20.4919 20.7695 23.9545 16.5 23.9545Z" fill="#30427E"/>
</svg>
