<svg width="14" height="15" viewBox="0 0 14 15" fill="none" xmlns="http://www.w3.org/2000/svg">
<path d="M13.619 10.2761L11.6653 8.32231C10.9675 7.62455 9.78132 7.90368 9.50222 8.81075C9.29289 9.43876 8.59512 9.78765 7.96713 9.64807C6.5716 9.29918 4.68764 7.48499 4.33875 6.01969C4.12943 5.39167 4.54808 4.69391 5.17607 4.4846C6.08317 4.2055 6.36227 3.0193 5.66451 2.32153L3.71077 0.367791C3.15255 -0.120644 2.31524 -0.120644 1.8268 0.367791L0.501048 1.69354C-0.824706 3.08907 0.640601 6.78723 3.9201 10.0667C7.19959 13.3462 10.8977 14.8813 12.2933 13.4858L13.619 12.16C14.1075 11.6018 14.1075 10.7645 13.619 10.2761Z" fill="#30427E"/>
</svg>
