<svg width="49" height="48" viewBox="0 0 49 48" fill="none" xmlns="http://www.w3.org/2000/svg">
<path d="M24.5 0C10.9692 0 0 10.7453 0 24C0 28.8778 1.48943 33.4138 4.04164 37.2017L0 48L11.4009 44.2776C15.19 46.6312 19.6803 48 24.5 48C38.0308 48 49 37.2547 49 24C49 10.7453 38.0308 0 24.5 0Z" fill="white"/>
<path d="M38.0164 31.4136V35.4C38.0223 36.8682 36.81 38.0624 35.3088 38.069C35.2234 38.069 35.1381 38.0657 35.0528 38.0582C30.8701 37.6139 26.8521 36.2169 23.3223 33.9782C20.0385 31.9382 17.2539 29.2154 15.1663 26.0044C12.8692 22.5376 11.4398 18.5901 10.9938 14.4827C10.8586 13.0212 11.9611 11.7285 13.4564 11.5961C13.5374 11.5903 13.6177 11.5861 13.6989 11.5861H17.7769C19.1413 11.5729 20.3046 12.5511 20.4955 13.8719C20.6679 15.1481 20.9873 16.4002 21.4468 17.606C21.8203 18.5776 21.5812 19.6724 20.8352 20.4099L19.1092 22.0973C21.0438 25.4242 23.8622 28.1792 27.2651 30.0711L28.9911 28.3837C29.7455 27.6538 30.8657 27.4204 31.8593 27.7854C33.0928 28.2356 34.3736 28.5476 35.6788 28.7156C37.0457 28.9043 38.0509 30.0646 38.0164 31.4136Z" fill="#21D1A0"/>
</svg>
