<svg width="38" height="38" viewBox="0 0 38 38" fill="none" xmlns="http://www.w3.org/2000/svg">
<path d="M19 0C8.50673 0 0 8.50673 0 19C0 22.8616 1.15507 26.4526 3.13433 29.4513L0 38L8.84153 35.0531C11.78 36.9163 15.2623 38 19 38C29.4933 38 38 29.4933 38 19C38 8.50673 29.4933 0 19 0Z" fill="white"/>
<path d="M29.4821 24.8691V28.025C29.4867 29.1873 28.5465 30.1327 27.3823 30.138C27.3161 30.138 27.25 30.1354 27.1838 30.1294C23.9401 29.7776 20.8241 28.6717 18.0867 26.8994C15.54 25.2844 13.3806 23.1289 11.7616 20.5868C9.98025 17.8423 8.87171 14.7172 8.52578 11.4655C8.42098 10.3084 9.27598 9.28508 10.4356 9.18021C10.4984 9.17561 10.5607 9.17235 10.6236 9.17235H13.7862C14.8443 9.16188 15.7464 9.93628 15.8945 10.9819C16.0282 11.9922 16.2759 12.9835 16.6323 13.9381C16.9219 14.7073 16.7365 15.574 16.1579 16.1578L14.8194 17.4937C16.3197 20.1275 18.5054 22.3085 21.1444 23.8063L22.4829 22.4704C23.068 21.8925 23.9367 21.7078 24.7073 21.9968C25.6638 22.3532 26.6571 22.6002 27.6693 22.7332C28.7293 22.8826 29.5089 23.8012 29.4821 24.8691Z" fill="#21D1A0"/>
</svg>
