<svg width="39" height="39" viewBox="0 0 39 39" fill="none" xmlns="http://www.w3.org/2000/svg">
<g clip-path="url(#clip0)">
<path d="M19.4998 39.0004C30.2692 39.0004 38.9995 30.27 38.9995 19.5006C38.9995 8.7312 30.2692 0.000854492 19.4998 0.000854492C8.73034 0.000854492 0 8.7312 0 19.5006C0 30.27 8.73034 39.0004 19.4998 39.0004Z" fill="#30427E"/>
<path d="M17.6063 22.3411L26.4187 28.9945L30.8671 10.0059L8.13306 18.9484L15.0508 21.2397L27.6757 12.7712L17.6063 22.3411Z" fill="white"/>
<path d="M15.0505 21.2397L16.9452 28.0574L17.6061 22.3412L27.6755 12.7712L15.0505 21.2397Z" fill="#D2D2D7"/>
<path d="M20.4703 24.5036L16.9453 28.0574L17.6063 22.3412L20.4703 24.5036Z" fill="#B9B9BE"/>
</g>
<defs>
<clipPath id="clip0">
<rect width="39" height="39" fill="white"/>
</clipPath>
</defs>
</svg>
